<?xml version="1.0" encoding="UTF-8" standalone="no"?>
<!-- Created with Inkscape (http://www.inkscape.org/) -->

<svg
   width="800"
   height="800"
   viewBox="0 0 211.66667 211.66667"
   version="1.1"
   id="svg5"
   inkscape:version="1.1.2 (0a00cf5339, 2022-02-04)"
   sodipodi:docname="tablero_svg.svg"
   xmlns:inkscape="http://www.inkscape.org/namespaces/inkscape"
   xmlns:sodipodi="http://sodipodi.sourceforge.net/DTD/sodipodi-0.dtd"
   xmlns="http://www.w3.org/2000/svg"
   xmlns:svg="http://www.w3.org/2000/svg">
  <sodipodi:namedview
     id="namedview7"
     pagecolor="#ffffff"
     bordercolor="#666666"
     borderopacity="1.0"
     inkscape:pageshadow="2"
     inkscape:pageopacity="0.0"
     inkscape:pagecheckerboard="0"
     inkscape:document-units="mm"
     showgrid="false"
     units="px"
     inkscape:zoom="0.4792789"
     inkscape:cx="310.8837"
     inkscape:cy="415.2071"
     inkscape:window-width="1366"
     inkscape:window-height="699"
     inkscape:window-x="0"
     inkscape:window-y="0"
     inkscape:window-maximized="1"
     inkscape:current-layer="layer1"
     width="800px" />
  <defs
     id="defs2" />
  <g
     inkscape:label="Capa 1"
     inkscape:groupmode="layer"
     id="layer1">
    <path
       style="fill:#000000;fill-opacity:1;fill-rule:nonzero;stroke:none;stroke-width:0.492737"
       id="path472"
       d="m 54.167079,-4.4682232 c 0.311606,2.6641968 0.731184,5.31400247 0.934827,7.9925879 0.89974,11.8346573 0.434493,23.7448573 0.228997,35.5980803 -0.384527,22.179775 0.02659,8.769673 -1.038927,33.509917 -2.140144,35.821448 -3.682295,71.807418 -1.87738,107.696018 0.07099,3.62294 -0.151031,7.22813 -0.133107,10.85871 -0.344989,2.51781 0.545954,4.76186 1.060289,7.11627 1.1284,5.16542 -0.469207,-1.66714 0.158178,2.3708 0.08765,0.56415 0.29205,1.0944 0.438078,1.64158 0.525194,1.38728 0.19813,0.69674 1.011481,2.05136 0,0 2.194134,-1.94536 2.194134,-1.94536 v 0 c -0.4926,-0.6637 -0.254399,-0.25827 -0.642257,-1.27086 -0.553515,-1.00723 -0.08698,0.0218 -0.26787,-2.04074 -0.237891,-2.71222 -1.6473,-5.12042 -1.203863,-7.94208 -0.01872,-3.6879 0.211474,-7.34917 0.128364,-11.03047 C 53.35667,144.36697 54.906487,108.4991 57.036693,72.795579 58.104261,47.96492 57.694194,61.3846 58.078465,39.19356 58.286679,27.169482 58.759838,15.08355 57.823983,3.0797517 c -0.218731,-2.80553374 -0.666067,-5.5799153 -0.999098,-8.369875 0,0 -2.657794,0.8219001 -2.657794,0.8219001 z" />
    <path
       style="fill:#000000;fill-opacity:1;fill-rule:nonzero;stroke:none;stroke-width:0.515018"
       id="path486"
       d="m 146.97368,-4.4849165 c -0.36891,7.5871626 -0.61437,11.2052605 -0.72327,18.6393875 -0.038,2.593336 0.073,5.189313 -9.1e-4,7.78137 -0.0553,1.940021 -0.67355,9.306183 -0.77989,11.359154 -0.10263,1.981246 -0.13393,3.967536 -0.20088,5.951297 -4.2e-4,1.911646 0.0674,3.825331 -0.001,5.734937 -0.16292,4.531911 -0.65734,9.036734 -0.83982,13.567411 -0.28171,6.994114 -0.23205,13.957773 -0.10848,20.953789 0.24084,11.094953 0.16345,22.196431 0.13141,33.294091 -0.007,2.64584 0.0833,5.29539 -0.0264,7.9375 -0.085,2.04735 -0.37103,4.07274 -0.55654,6.10911 -0.44462,6.72469 -1.89822,13.35087 -2.45139,20.05664 -0.45061,5.46239 -0.3733,8.27307 -0.41317,13.70096 0.043,1.87556 0.075,3.75156 0.12891,5.62667 0.0399,1.3861 0.19606,2.77064 0.15226,4.15655 -0.0587,1.8587 -0.50859,3.22632 -0.81009,4.98838 -0.4109,2.40142 -0.29469,2.25553 -0.34989,4.98659 0.0327,0.98954 0.14275,1.97989 0.098,2.96867 -0.0296,0.65481 -0.66156,4.2901 -0.73839,4.88985 -0.25116,1.96102 -0.32536,3.79007 -0.18294,5.75589 0.47727,2.76011 -0.7431,5.25782 -1.01311,7.9213 -0.14443,1.42477 -0.0504,1.96606 0.0489,3.33811 0.0591,0.65737 0.19101,1.30557 0.18137,1.96996 0,0 2.74779,-0.0621 2.74779,-0.0621 v 0 c -0.0196,-0.76262 -0.0808,-1.51479 -0.19509,-2.26543 -0.0523,-0.58726 -0.16821,-1.5654 -0.10892,-2.16584 0.29976,-3.03556 1.63648,-5.94468 1.07293,-9.09651 -0.40772,-4.47999 1.33903,-8.705 0.83721,-13.1884 0.006,-0.78258 -0.0323,-1.5677 0.0172,-2.34773 0.17021,-2.68488 1.04984,-5.1264 1.14026,-7.85874 0.0452,-1.36533 -0.11078,-2.7295 -0.15043,-4.09512 -0.0531,-1.8296 -0.0852,-3.66012 -0.12783,-5.4902 0.0335,-5.00549 -0.0378,-8.14094 0.37615,-13.15453 0.56081,-6.79298 2.0237,-13.41855 2.47046,-20.23088 0.19153,-2.16602 0.48398,-4.32123 0.57458,-6.49807 0.11001,-2.64324 0.0187,-5.29398 0.0263,-7.94098 0.0321,-11.12828 0.10932,-22.260392 -0.1321,-33.385977 -0.12246,-6.885875 -0.17427,-13.74043 0.10233,-20.624544 0.18538,-4.613545 0.67977,-9.201626 0.84667,-13.816338 0.0672,-1.859098 -9.1e-4,-3.722203 -0.001,-5.583302 0.064,-1.926952 0.0922,-3.856411 0.19194,-5.780849 0.14782,-2.851675 0.71277,-8.943985 0.79136,-11.68124 0.0732,-2.550423 -0.0379,-5.104757 -9.1e-4,-7.656477 0.10645,-7.3310667 0.34899,-10.9310427 0.71094,-18.4078601 0,0 -2.73416,-0.3564186 -2.73416,-0.3564186 z" />
    <path
       style="fill:#000000;fill-opacity:1;fill-rule:nonzero;stroke:none;stroke-width:0.490034"
       id="path490"
       d="m 2.5150351,52.402701 c 13.1849359,0.395388 26.2260819,2.072548 39.3194069,3.294203 1.192053,0.111213 29.582057,2.434779 32.625692,2.606245 4.192124,0.236164 8.39648,0.266926 12.594719,0.400392 14.878297,-0.07382 29.727957,-0.875513 44.607117,-0.9183 3.02541,-0.0088 6.0612,-0.174026 9.07613,0.04249 3.11186,0.223493 6.16685,0.849123 9.25027,1.273681 13.4929,3.146896 27.08818,6.364566 40.97448,7.985047 1.86457,0.217591 3.75785,0.198453 5.6277,0.379432 0.64786,0.684499 0.14244,0.25076 1.91692,0.832961 2.99263,0.981864 5.67884,1.344939 8.86601,1.182653 0.152,0.04046 0.30412,0.08087 0.45617,0.121288 0,0 0.60429,-2.698623 0.60429,-2.698623 v 0 c -0.42385,-0.05496 -0.84769,-0.109915 -1.27154,-0.164876 -3.61882,0.233594 -7.03309,-0.515647 -10.21842,-2.004758 -1.80668,-0.171179 -3.63598,-0.145862 -5.43706,-0.356159 -13.90243,-1.623254 -27.50431,-4.863619 -41.01959,-7.991462 -3.24397,-0.435789 -6.45992,-1.073203 -9.73191,-1.307358 -3.03253,-0.217015 -6.0859,-0.05128 -9.12889,-0.04236 -14.82822,0.0434 -29.62714,0.835275 -44.45422,0.91999 C 83.030516,55.826805 78.882635,55.799011 74.746924,55.566026 71.745197,55.396926 43.403265,53.079157 42.220449,52.968815 29.124668,51.747151 16.080875,50.066153 2.8932836,49.67381 c 0,0 -0.3782485,2.728892 -0.3782485,2.728891 z" />
    <path
       style="fill:#000000;fill-opacity:1;fill-rule:nonzero;stroke:none;stroke-width:0.443374"
       id="path492"
       d="m 2.1965679,133.4757 c 1.8182721,0 3.6365439,0 5.4548156,0 2.6331505,0 5.2676745,-0.0893 7.8994535,0 3.023615,0.10258 12.586896,0.91035 15.788633,1.09662 6.523293,0.3795 7.310612,0.27727 14.047135,0.27825 19.566431,1.07494 -3.889478,-0.31298 20.811772,1.56327 4.470112,0.33954 8.948516,0.54688 13.420683,0.85516 11.116788,0.76631 13.570754,1.18929 24.44527,1.47967 3.34426,0.0893 6.69061,0.0341 10.03591,0.0511 9.20444,-0.20237 18.40438,-0.51901 27.6113,-0.58289 3.63202,-0.0252 7.26517,0.0767 10.89628,-0.0124 5.02406,-0.12319 17.18114,-0.81649 22.66409,-1.11471 5.56461,-0.60213 11.14265,-0.11804 16.62553,0.95666 1.88645,0.36977 3.68943,1.14215 5.57981,1.48911 0.64014,0.11749 1.29554,0.10878 1.94333,0.16316 2.40364,0.73211 4.82876,0.59742 7.27929,0.46805 0.55065,-0.33827 4.29512,0.59512 1.88757,-0.3333 0,0 2.16873,-1.53654 2.16873,-1.53654 v 0 c -0.4068,-0.29069 -0.77067,-0.66265 -1.22047,-0.87208 -0.69894,-0.32543 -2.25048,0.22526 -2.97117,-0.003 -2.35169,0.1314 -4.65543,0.2366 -6.96629,-0.46538 -2.54749,-0.14003 -4.82572,-1.14095 -7.33904,-1.63222 -5.64172,-1.10276 -11.3992,-1.57965 -17.12253,-0.97939 -5.34878,0.29097 -17.6451,0.9913 -22.5317,1.11103 -3.64128,0.0892 -7.28463,-0.0127 -10.92682,0.0125 -9.19165,0.064 -18.37636,0.37836 -27.56548,0.58269 -3.31192,-0.0161 -6.62486,0.0395 -9.93574,-0.0486 -10.830933,-0.2881 -13.30465,-0.71259 -24.399587,-1.47719 -4.450998,-0.30674 -8.908233,-0.51243 -13.357183,-0.8503 -24.652567,-1.87219 -1.371868,-0.5014 -21.033555,-1.57316 -6.630431,9e-4 -7.440264,0.10229 -13.866602,-0.2717 -3.59983,-0.2095 -12.550346,-0.98722 -15.969166,-1.10318 -2.63178,-0.0893 -5.266303,0 -7.8994535,0 -1.8182717,0 -3.6365435,0 -5.4548156,0 0,0 0,2.74822 0,2.74822 z" />
  </g>
</svg>
